<svg xmlns="http://www.w3.org/2000/svg" xmlns:xlink="http://www.w3.org/1999/xlink" width="1600" height="1031" viewBox="0 0 1600 1031">
  <defs>
    <clipPath id="clip-path">
      <rect id="Rectangle_3526" data-name="Rectangle 3526" width="1600" height="1031" transform="translate(1748 1038)" fill="#fff" stroke="#707070" stroke-width="1"/>
    </clipPath>
    <radialGradient id="radial-gradient" cx="0.35" cy="0.186" r="1.374" gradientTransform="translate(0.167) scale(0.667 1)" gradientUnits="objectBoundingBox">
      <stop offset="0" stop-color="#ffabbc"/>
      <stop offset="0" stop-color="#ffe2e3"/>
      <stop offset="0.352" stop-color="#f1b1be"/>
      <stop offset="0.788" stop-color="#e27a95"/>
      <stop offset="0.94" stop-color="#de6b89"/>
      <stop offset="1" stop-color="#fff"/>
    </radialGradient>
    <linearGradient id="linear-gradient" x1="0.5" x2="0.5" y2="1" gradientUnits="objectBoundingBox">
      <stop offset="0" stop-color="#ffabbc"/>
      <stop offset="0" stop-color="#fff"/>
      <stop offset="0.554" stop-color="#f6d8de"/>
      <stop offset="0.82" stop-color="#f1b1be"/>
      <stop offset="1" stop-color="#e27a95"/>
      <stop offset="1" stop-color="#dc6585"/>
    </linearGradient>
    <linearGradient id="linear-gradient-2" x1="0.5" x2="0.5" y2="1" gradientUnits="objectBoundingBox">
      <stop offset="0" stop-color="#ffabbc"/>
      <stop offset="0" stop-color="#fff"/>
      <stop offset="0.308" stop-color="#fff"/>
      <stop offset="0.656" stop-color="#f6d8de"/>
      <stop offset="1" stop-color="#ffcbd9"/>
    </linearGradient>
    <clipPath id="clip-path-2">
      <rect id="SVGID" width="1600" height="1153" fill="none"/>
    </clipPath>
    <linearGradient id="linear-gradient-3" x1="0.5" y1="0.286" x2="0.5" y2="0.693" gradientUnits="objectBoundingBox">
      <stop offset="0" stop-color="#ffe2e3"/>
      <stop offset="1" stop-color="#f8c9d0"/>
    </linearGradient>
  </defs>
  <g id="Groupe_de_masques_1755" data-name="Groupe de masques 1755" transform="translate(-1748 -1038)" clip-path="url(#clip-path)">
    <g id="Groupe_1788" data-name="Groupe 1788" transform="translate(1968 7)">
      <g id="Groupe_1566" data-name="Groupe 1566" transform="translate(-220 1348.788)">
        <rect id="Rectangle_2222" data-name="Rectangle 2222" width="1600" height="630" transform="translate(0 85.212)" fill="url(#radial-gradient)"/>
        <rect id="Rectangle_3513" data-name="Rectangle 3513" width="1600" height="602" transform="translate(0 57.212)" fill="url(#linear-gradient)" style="mix-blend-mode: lighten;isolation: isolate"/>
      </g>
      <g id="Groupe_1786" data-name="Groupe 1786" transform="translate(-220)">
        <rect id="Rectangle_3525" data-name="Rectangle 3525" width="1600" height="1128" transform="translate(0 1088)" fill="url(#linear-gradient-2)" style="mix-blend-mode: lighten;isolation: isolate"/>
        <g id="Groupe_1756" data-name="Groupe 1756" transform="translate(0 911)">
          <g id="Groupe_1565" data-name="Groupe 1565">
            <g id="Groupe_1564" data-name="Groupe 1564" clip-path="url(#clip-path-2)">
              <g id="Groupe_1563" data-name="Groupe 1563" transform="translate(-449.38 642.445)">
                <path id="Tracé_678" data-name="Tracé 678" d="M-210.647,509.461c0-62.078,41.09-115.568,100.326-140.122A53.486,53.486,0,0,1-121.843,336.4c0-32.03,29.122-58,65.047-58s65.05,25.965,65.05,58A52.455,52.455,0,0,1,3,359.248,180.889,180.889,0,0,1,76.638,393.2c2.1-.067,4.2-.143,6.327-.143,53.751,0,101.783,21.826,133.564,56.078,49.673,6.57,89.02,41.33,96.945,85.454.806-.025,1.611-.053,2.426-.053,35.925,0,65.047,25.965,65.047,58a52.114,52.114,0,0,1-1.357,11.82,194.128,194.128,0,0,1,37.246-3.616c1.907,0,3.793.074,5.685.129,15.881-40.949,70.577-73.376,140.555-83.587,6.6-25.792,32.471-45.045,63.4-45.045a72.766,72.766,0,0,1,15.763,1.724c16.224-39.387,58.665-67.487,108.467-67.487,52.279,0,96.425,30.971,110.671,73.45,47.1,1.643,90.957,9.6,128.576,22.3,11.876-14.007,30.709-23.062,51.921-23.062,33.233,0,60.625,22.225,64.548,50.909a71.3,71.3,0,0,1,28.625-5.912c26.084,0,48.572,13.7,58.94,33.456a128.007,128.007,0,0,1,38.116-5.765c36.158,0,68.425,14.82,89.606,38.009,11.793-10.643,28.166-17.243,46.272-17.243,22.114,0,41.638,9.849,53.393,24.883a187.184,187.184,0,0,1,21.284-6.051,52.276,52.276,0,0,1-3.848-19.679c0-28.206,22.592-51.7,52.519-56.909,23.309-60.774,87.876-104.49,163.936-104.49a191.631,191.631,0,0,1,60.958,9.861c29.408-27.5,70.052-45.359,115.392-47.66a52.28,52.28,0,0,1-.7-8.478c0-32.03,29.124-58,65.05-58s65.048,25.966,65.048,58c0,14.767-6.2,28.236-16.393,38.475,42.618,28.142,70.257,73.29,70.257,124.2,0,66.667-47.366,123.468-113.732,145.115a139.084,139.084,0,0,1,1.147,17.566c0,85.313-77.574,154.475-173.263,154.475a187.782,187.782,0,0,1-94.679-25.128c-29.992,46.056-85.869,77.047-149.9,77.047-41.365,0-79.324-12.941-109.116-34.506-48.486,25.2-112.55,40.529-182.8,40.529-138.85,0-253.555-59.874-271.488-137.5a502.921,502.921,0,0,1-77.912,5.974c-70.359,0-134.513-14.081-183.027-37.215a325.711,325.711,0,0,1-49.907,3.81c-7.253,0-14.4-.254-21.449-.706A139.289,139.289,0,0,1,590.1,755.21c0,85.315-77.572,154.477-173.263,154.477-74.462,0-137.937-41.888-162.443-100.67C210.75,826.645,157.577,837,100.192,837c-148.356,0-268.623-69.16-268.623-154.475,0-19.726,6.443-38.586,18.161-55.928C-187.217,598.265-210.647,556.315-210.647,509.461Z" transform="translate(210.647 -278.4)" fill="url(#linear-gradient-3)"/>
                <path id="Tracé_679" data-name="Tracé 679" d="M1784.372,542.458c0-62.075-33.867-115.568-82.69-140.122a61.047,61.047,0,0,0,9.5-32.941c0-32.03-24-58-53.615-58s-53.613,25.966-53.613,58a61.839,61.839,0,0,0,4.329,22.85,138.954,138.954,0,0,0-60.693,33.955c-1.734-.067-3.467-.143-5.216-.143-44.3,0-83.891,21.826-110.086,56.076-40.943,6.572-73.374,41.332-79.906,85.456-.663-.025-1.327-.055-2-.055-29.611,0-53.615,25.966-53.615,58a62.747,62.747,0,0,0,1.118,11.822,132.893,132.893,0,0,0-30.7-3.618c-1.572,0-3.127.074-4.687.129-13.088-40.949-58.172-73.376-115.849-83.587-5.442-25.792-26.763-45.043-52.256-45.043a49.849,49.849,0,0,0-12.994,1.724c-13.372-39.387-48.352-67.489-89.4-67.489-43.089,0-79.475,30.971-91.217,73.45-38.825,1.645-74.97,9.6-105.978,22.3-9.788-14.007-25.31-23.062-42.793-23.062-27.392,0-49.969,22.223-53.2,50.909a50.09,50.09,0,0,0-23.595-5.912c-21.5,0-40.034,13.693-48.58,33.454a88.62,88.62,0,0,0-31.415-5.764c-29.8,0-56.4,14.82-73.856,38.011a51.534,51.534,0,0,0-38.138-17.245c-18.227,0-34.321,9.849-44.009,24.886a134.132,134.132,0,0,0-17.542-6.053,62.164,62.164,0,0,0,3.172-19.677c0-28.208-18.622-51.7-43.29-56.911-19.211-60.772-72.429-104.487-135.121-104.487a132.931,132.931,0,0,0-50.24,9.858c-24.241-27.5-57.741-45.359-95.11-47.659a63.012,63.012,0,0,0,.576-8.478c0-32.03-24-58-53.615-58s-53.615,25.966-53.615,58A60.528,60.528,0,0,0,7.941,435.559c-35.127,28.142-57.907,73.29-57.907,124.206,0,66.665,39.04,123.468,93.741,145.115a168.531,168.531,0,0,0-.945,17.563c0,85.315,63.936,154.477,142.807,154.477a134.51,134.51,0,0,0,78.035-25.128c24.721,46.054,70.778,77.045,123.554,77.045,34.093,0,65.38-12.941,89.935-34.506,39.966,25.2,92.768,40.531,150.671,40.531,114.443,0,208.988-59.874,223.767-137.5a343.332,343.332,0,0,0,64.218,5.977c57.99,0,110.867-14.081,150.854-37.218a222.362,222.362,0,0,0,41.135,3.812c5.98,0,11.872-.254,17.681-.708a168.248,168.248,0,0,0-1.114,18.987c0,85.313,63.938,154.475,142.81,154.475,61.374,0,113.692-41.888,133.89-100.668,35.972,17.628,79.8,27.982,127.1,27.982,122.278,0,221.406-69.162,221.406-154.477,0-19.726-5.31-38.584-14.97-55.928C1765.061,631.264,1784.372,589.314,1784.372,542.458Z" transform="translate(392.752 -235.249)" fill="#fff"/>
              </g>
            </g>
          </g>
        </g>
      </g>
    </g>
  </g>
</svg>
