<svg xmlns="http://www.w3.org/2000/svg" xmlns:xlink="http://www.w3.org/1999/xlink" width="1600" height="1290" viewBox="0 0 1600 1290">
  <defs>
    <radialGradient id="radial-gradient" cx="0.35" cy="0.186" r="1.374" gradientTransform="translate(0.167) scale(0.667 1)" gradientUnits="objectBoundingBox">
      <stop offset="0" stop-color="#ffabbc"/>
      <stop offset="0" stop-color="#ffe2e3"/>
      <stop offset="0.352" stop-color="#f1b1be"/>
      <stop offset="0.788" stop-color="#e27a95"/>
      <stop offset="0.94" stop-color="#de6b89"/>
      <stop offset="1" stop-color="#fff"/>
    </radialGradient>
    <linearGradient id="linear-gradient" x1="0.5" x2="0.5" y2="1" gradientUnits="objectBoundingBox">
      <stop offset="0" stop-color="#ffabbc"/>
      <stop offset="0" stop-color="#fff"/>
      <stop offset="0.308" stop-color="#fff"/>
      <stop offset="0.656" stop-color="#f6d8de"/>
      <stop offset="1" stop-color="#ffcbd9"/>
    </linearGradient>
    <clipPath id="clip-path">
      <rect id="SVGID" width="1600" height="1112" stroke-width="1" fill="none" stroke="#fff" transform="translate(0 -0.18)"/>
    </clipPath>
    <linearGradient id="linear-gradient-2" x1="0.5" y1="0.286" x2="0.5" y2="0.693" gradientUnits="objectBoundingBox">
      <stop offset="0" stop-color="#ffe2e3"/>
      <stop offset="1" stop-color="#f8c9d0"/>
    </linearGradient>
  </defs>
  <g id="Groupe_1789" data-name="Groupe 1789" transform="translate(220 -3767)">
    <g id="Groupe_1784" data-name="Groupe 1784" transform="translate(-220 3709.546)">
      <rect id="Rectangle_2222" data-name="Rectangle 2222" width="1600" height="1181" transform="translate(0 109.454)" fill="url(#radial-gradient)"/>
    </g>
    <g id="Groupe_1787" data-name="Groupe 1787" transform="translate(-220)">
      <rect id="Rectangle_3513" data-name="Rectangle 3513" width="1600" height="1128" transform="translate(0 3767)" fill="url(#linear-gradient)" style="mix-blend-mode: lighten;isolation: isolate"/>
      <g id="Groupe_1565" data-name="Groupe 1565" transform="translate(0 3707)">
        <g id="Groupe_1564" data-name="Groupe 1564" transform="translate(0 238.18)" clip-path="url(#clip-path)">
          <g id="Groupe_1563" data-name="Groupe 1563" transform="translate(-449.38 619.361)">
            <path id="Tracé_678" data-name="Tracé 678" d="M-210.647,501.158c0-59.847,41.09-111.416,100.326-135.087a50.412,50.412,0,0,1-11.522-31.76c0-30.879,29.122-55.912,65.047-55.912s65.05,25.033,65.05,55.912A49.075,49.075,0,0,1,3,356.343a184.028,184.028,0,0,1,73.636,32.732c2.1-.065,4.2-.138,6.327-.138,53.751,0,101.783,21.041,133.564,54.063,49.673,6.334,89.02,39.845,96.945,82.383.806-.025,1.611-.051,2.426-.051,35.925,0,65.047,25.033,65.047,55.912a48.519,48.519,0,0,1-1.357,11.395,201.129,201.129,0,0,1,37.246-3.486c1.907,0,3.793.071,5.685.125C438.4,549.8,493.1,518.538,563.077,508.694c6.6-24.866,32.471-43.426,63.4-43.426a75.366,75.366,0,0,1,15.763,1.662c16.224-37.971,58.665-65.062,108.467-65.062,52.279,0,96.425,29.858,110.671,70.81,47.1,1.584,90.957,9.255,128.576,21.5,11.876-13.5,30.709-22.234,51.921-22.234,33.233,0,60.625,21.426,64.548,49.079a73.583,73.583,0,0,1,28.625-5.7c26.084,0,48.572,13.2,58.94,32.254a132.407,132.407,0,0,1,38.116-5.557c36.158,0,68.425,14.287,89.606,36.643,11.793-10.26,28.166-16.623,46.272-16.623,22.114,0,41.638,9.495,53.393,23.989a192.623,192.623,0,0,1,21.284-5.833,48.824,48.824,0,0,1-3.848-18.972c0-27.193,22.592-49.843,52.519-54.864,23.309-58.59,87.876-100.735,163.936-100.735a198.143,198.143,0,0,1,60.958,9.506c29.408-26.516,70.052-43.729,115.392-45.947a48.635,48.635,0,0,1-.7-8.174c0-30.879,29.124-55.911,65.05-55.911s65.048,25.033,65.048,55.911c0,14.236-6.2,27.222-16.393,37.093,42.618,27.13,70.257,70.657,70.257,119.741,0,64.272-47.366,119.031-113.732,139.9a129.341,129.341,0,0,1,1.147,16.934c0,82.248-77.574,148.925-173.263,148.925-34.95,0-67.46-8.926-94.679-24.225-29.992,44.4-85.869,74.279-149.9,74.279-41.365,0-79.324-12.476-109.116-33.266-48.486,24.292-112.55,39.073-182.8,39.073-138.85,0-253.555-57.722-271.488-132.562a521.275,521.275,0,0,1-77.912,5.76c-70.359,0-134.513-13.575-183.027-35.878a337.615,337.615,0,0,1-49.907,3.673c-7.253,0-14.4-.245-21.449-.681a129.546,129.546,0,0,1,1.348,18.3C590.1,820.327,512.527,887,416.837,887c-74.462,0-137.937-40.383-162.443-97.053-43.644,16.995-96.817,26.977-154.2,26.977C-48.164,816.928-168.43,750.253-168.43,668c0-19.017,6.443-37.2,18.161-53.918C-187.217,586.772-210.647,546.329-210.647,501.158Z" transform="translate(210.647 -278.4)" stroke="#fff" stroke-width="1" fill="url(#linear-gradient-2)"/>
            <path id="Tracé_679" data-name="Tracé 679" d="M1784.372,534.155c0-59.845-33.867-111.416-82.69-135.087a57.316,57.316,0,0,0,9.5-31.758c0-30.879-24-55.912-53.615-55.912s-53.613,25.033-53.613,55.912a57.741,57.741,0,0,0,4.329,22.029,140.423,140.423,0,0,0-60.693,32.734c-1.734-.064-3.467-.138-5.216-.138-44.3,0-83.891,21.041-110.086,54.061-40.943,6.336-73.374,39.847-79.906,82.386-.663-.024-1.327-.053-2-.053-29.611,0-53.615,25.033-53.615,55.911a58.389,58.389,0,0,0,1.118,11.4,137.608,137.608,0,0,0-30.7-3.488c-1.572,0-3.127.071-4.687.125-13.088-39.478-58.172-70.739-115.849-80.584-5.442-24.866-26.763-43.424-52.256-43.424a51.6,51.6,0,0,0-12.994,1.662c-13.372-37.971-48.352-65.064-89.4-65.064-43.089,0-79.475,29.858-91.217,70.811-38.825,1.586-74.97,9.257-105.978,21.5a52.821,52.821,0,0,0-42.793-22.234c-27.392,0-49.969,21.424-53.2,49.079a51.581,51.581,0,0,0-23.595-5.7c-21.5,0-40.034,13.2-48.58,32.252a91.553,91.553,0,0,0-31.415-5.557c-29.8,0-56.4,14.287-73.856,36.645a52.383,52.383,0,0,0-38.138-16.625c-18.227,0-34.321,9.5-44.009,23.991a137.574,137.574,0,0,0-17.542-5.835,57.972,57.972,0,0,0,3.172-18.97c0-27.195-18.622-49.845-43.29-54.866-19.211-58.588-72.429-100.733-135.121-100.733a137.256,137.256,0,0,0-50.24,9.5c-24.241-26.516-57.741-43.729-95.11-45.947a58.6,58.6,0,0,0,.576-8.174c0-30.879-24-55.912-53.615-55.912S-5.571,363.126-5.571,394A57.069,57.069,0,0,0,7.941,431.1c-35.127,27.13-57.907,70.657-57.907,119.743,0,64.27,39.04,119.031,93.741,139.9a156.7,156.7,0,0,0-.945,16.932c0,82.25,63.936,148.927,142.807,148.927a137.936,137.936,0,0,0,78.035-24.225c24.721,44.4,70.778,74.277,123.554,74.277a138.637,138.637,0,0,0,89.935-33.266c39.966,24.294,92.768,39.075,150.671,39.075,114.443,0,208.988-57.722,223.767-132.564a355.746,355.746,0,0,0,64.218,5.762c57.99,0,110.867-13.575,150.854-35.88a230.405,230.405,0,0,0,41.135,3.675c5.98,0,11.872-.245,17.681-.683a156.444,156.444,0,0,0-1.114,18.3c0,82.248,63.938,148.925,142.81,148.925,61.374,0,113.692-40.383,133.89-97.051,35.972,16.995,79.8,26.977,127.1,26.977,122.278,0,221.406-66.677,221.406-148.927,0-19.017-5.31-37.2-14.97-53.918C1765.061,619.771,1784.372,579.328,1784.372,534.155Z" transform="translate(392.752 -237.986)" fill="#fff" stroke="#fff" stroke-width="1"/>
          </g>
        </g>
      </g>
    </g>
  </g>
</svg>
