<svg xmlns="http://www.w3.org/2000/svg" width="81.398" height="77.328" viewBox="0 0 81.398 77.328">
  <g id="Groupe_1545" data-name="Groupe 1545" transform="translate(-10884 -2324.958)">
    <path id="Icon_material-card-giftcard" data-name="Icon material-card-giftcard" d="M76.258,19.28H67.386A12.181,12.181,0,0,0,45.734,8.494L43.7,11.221,41.664,8.454A12.184,12.184,0,0,0,20.012,19.28H11.14a8.077,8.077,0,0,0-8.1,8.14L3,72.188a8.112,8.112,0,0,0,8.14,8.14H76.258a8.112,8.112,0,0,0,8.14-8.14V27.419A8.112,8.112,0,0,0,76.258,19.28ZM55.909,8.454c2.238,0,8.591,4.518,8.591,6.756s-6.353,4.07-8.591,4.07S48.5,17.448,48.5,15.21,53.67,8.454,55.909,8.454Zm-24.094.041c2.238,0,7.685,4.477,7.685,6.715s-5.447,4.07-7.685,4.07S23.9,17.448,23.9,15.21,29.576,8.494,31.815,8.494ZM79.1,74.7H8.3v-18H79.1Zm0-22.861H8.3V24.9h23.19l-4.07,14.037,4.4,2.563,3.744-10.987,6.1-7.613,10.175,7.613L55.909,41.5l4.07-2.563L55.909,24.9H79.1Z" transform="translate(10881 2321.958)" fill="#514f62"/>
  </g>
</svg>
