<svg xmlns="http://www.w3.org/2000/svg" width="133.066" height="81.04" viewBox="0 0 133.066 81.04">
  <g id="Groupe_1546" data-name="Groupe 1546" transform="translate(-10605 -2320.786)">
    <path id="Icon_awesome-vr-cardboard" data-name="Icon awesome-vr-cardboard" d="M123.563,4.5H6.5A6.5,6.5,0,0,0,0,11V76.037a6.5,6.5,0,0,0,6.5,6.5H39.065a13,13,0,0,0,11.86-7.67l5.638-12.527a9.076,9.076,0,0,1,16.941,0L79.141,74.87A13.005,13.005,0,0,0,91,82.54h32.561a6.5,6.5,0,0,0,6.5-6.5V11A6.5,6.5,0,0,0,123.563,4.5ZM32.517,53.275A13.007,13.007,0,1,1,45.523,40.268,13.006,13.006,0,0,1,32.517,53.275Zm65.033,0a13.007,13.007,0,1,1,13.007-13.007A13.006,13.006,0,0,1,97.55,53.275Z" transform="translate(10606.5 2317.786)" fill="none" stroke="#514f62" stroke-width="3"/>
  </g>
</svg>
