<svg xmlns="http://www.w3.org/2000/svg" width="84" height="95.572" viewBox="0 0 84 95.572">
  <g id="Groupe_1550" data-name="Groupe 1550" transform="translate(-9747.5 -2305.5)">
    <path id="Icon_awesome-shopping-bag" data-name="Icon awesome-shopping-bag" d="M63.643,28.929V23.143a23.143,23.143,0,1,0-46.286,0v5.786H0V78.107A14.464,14.464,0,0,0,14.464,92.571H66.536A14.464,14.464,0,0,0,81,78.107V28.929ZM28.929,23.143a11.571,11.571,0,1,1,23.143,0v5.786H28.929Zm28.929,21.7A4.339,4.339,0,1,1,62.2,40.5,4.339,4.339,0,0,1,57.857,44.839Zm-34.714,0A4.339,4.339,0,1,1,27.482,40.5,4.339,4.339,0,0,1,23.143,44.839Z" transform="translate(9749 2307)" fill="none" stroke="#514f62" stroke-width="3"/>
  </g>
</svg>
