<svg xmlns="http://www.w3.org/2000/svg" width="407.243" height="49.763" viewBox="0 0 407.243 49.763">
  <g id="Groupe_1552" data-name="Groupe 1552" transform="translate(-147.822 -505.441)">
    <path id="Tracé_413" data-name="Tracé 413" d="M148.068,506.747H193.7a.824.824,0,0,1,.752.359.8.8,0,0,1-.1.881l-26.18,45.441h26.7V554.8H149.049a1.071,1.071,0,0,1-1.11-.619,1.456,1.456,0,0,1,.065-1.273l25.919-44.787H148.068Zm2.678,46.681,26.245-45.31h-1.306l-26.114,45.31Zm2.611,0,26.246-45.31H178.3l-26.115,45.31Zm2.613,0,26.18-45.31h-1.306l-26.18,45.31Zm2.675,0,26.247-45.31h-1.437l-26.18,45.31Zm2.547,0,26.116-45.31h-1.242l-26.245,45.31Zm2.612,0,26.245-45.31h-1.37L162.5,553.428Zm2.48,0,26.18-45.31h-1.11l-26.18,45.31Z" fill="#fff"/>
    <path id="Tracé_414" data-name="Tracé 414" d="M212.441,506.747h18.347V554.8H212.441Zm1.7,46.681h1.173v-45.31h-1.173Zm3.524-45.31h-1.176v45.31h1.176Zm2.285,0h-1.176v45.31h1.176Zm2.351,0h-1.176v45.31H222.3Zm2.285,0H223.41v45.31h1.176Zm2.349,0h-1.173v45.31h1.173Zm1.111,0v45.31h1.109v-45.31Z" fill="#fff"/>
    <path id="Tracé_415" data-name="Tracé 415" d="M249.851,506.747h23.7l19.2,21.021V506.747h1.632v47.2q0,.915-.556,1.175a.867.867,0,0,1-1.076-.327l-41.2-44.851V554.8h-1.7Zm2.088,1.371,40.806,44.461V550.75l-39.107-42.632Zm3.266,0,37.54,40.934v-1.7l-35.909-39.237Zm3.2,0,34.342,37.474v-1.761L260.1,508.118Zm3.134,0,31.208,34.013V540.3l-29.51-32.185Zm3.265,0,27.943,30.488v-1.7l-26.376-28.791Zm3.133,0,24.81,27.093V533.45l-23.178-25.332Zm3.2,0,21.61,23.634v-1.764L272.7,508.118Z" fill="#fff"/>
    <path id="Tracé_416" data-name="Tracé 416" d="M342.819,554.8H312.591a1.453,1.453,0,0,1-.947-.455c-.24-.262-.206-.632.1-1.111l27.682-47.463a1.026,1.026,0,0,1,1.5,0L369.587,554.8h-20.7l-18.151-31.01-17.3,29.641h28.6Zm7.116-1.369h1.306l-18.933-32.384-.653,1.111ZM333.679,518.76l-.654,1.11,19.587,33.558h1.24Zm1.241-2.156-.588,1.046,20.826,35.778h1.371Zm22.915,36.824h1.435l-22.979-39.174-.653,1.176Zm-20.3-41.328-.588,1.045,23.569,40.283h1.371Zm1.371-2.35-.653,1.11,24.94,42.568h1.371Zm1.241-2.155-.587,1.044L365.8,553.428h1.176Z" fill="#fff"/>
    <path id="Tracé_417" data-name="Tracé 417" d="M432.263,521.175a13.887,13.887,0,0,1-.718,4.473,15.251,15.251,0,0,1-1.959,3.884,15.857,15.857,0,0,1,2.61,4.506,15.173,15.173,0,0,1-.129,11.064,16.509,16.509,0,0,1-3,4.734,14.122,14.122,0,0,1-5.255,3.657,21.131,21.131,0,0,1-8,1.3H386.627v-48.05h29.379a18.869,18.869,0,0,1,7.736,1.371,14.17,14.17,0,0,1,8.521,13.057Zm-43.939,32.253H389.5v-45.31h-1.175Zm3.527-45.31h-1.177v45.31h1.177Zm2.284,0h-1.176v45.31h1.176Zm2.349,0H395.31v45.31h1.174Zm2.286,0H397.6v45.31h1.175Zm2.351,0h-1.176v45.31h1.176Zm1.109,0v45.31h1.11v-45.31Zm6.987,15.865h6.593a21.009,21.009,0,0,1,7.541,1.175,15.107,15.107,0,0,1,5.125,3.2,12.459,12.459,0,0,0,2.089-7.182,13.042,13.042,0,0,0-.849-4.7,13.342,13.342,0,0,0-2.22-3.853,12.15,12.15,0,0,0-4.537-3.264,17.373,17.373,0,0,0-6.953-1.24H404.973v45.31H415.81a19.214,19.214,0,0,0,7.28-1.177,12.966,12.966,0,0,0,4.733-3.264,15.194,15.194,0,0,0,2.709-4.309,13.54,13.54,0,0,0,1.013-5.289,13.881,13.881,0,0,0-.817-4.7,14.417,14.417,0,0,0-2.122-3.983,14.065,14.065,0,0,1-5.091,3.526,19.772,19.772,0,0,1-7.509,1.239h-6.789Zm1.7,1.371V534.1h5.092a17.861,17.861,0,0,0,6.79-1.109,13.319,13.319,0,0,0,4.765-3.4,14.955,14.955,0,0,0-4.96-3.035,18.4,18.4,0,0,0-6.791-1.207Z" fill="#fff"/>
    <path id="Tracé_418" data-name="Tracé 418" d="M451.064,506.747h43.221v1.371H469.41V529.4h24.548v1.372H469.41v22.655h25V554.8h-43.35Zm1.7,46.681h1.175v-45.31h-1.175Zm3.526-45.31h-1.176v45.31h1.176Zm2.285,0H457.4v45.31h1.176Zm2.35,0h-1.175v45.31h1.175Zm2.285,0h-1.176v45.31h1.176Zm2.351,0h-1.175v45.31h1.175Zm1.11,0v45.31h1.109v-45.31Z" fill="#fff"/>
    <path id="Tracé_419" data-name="Tracé 419" d="M512.955,506.747H531.3v46.681h23.764V554.8h-42.11Zm1.7,46.681h1.175v-45.31h-1.175Zm3.525-45.31H517v45.31h1.175Zm2.286,0h-1.176v45.31h1.176Zm2.35,0h-1.175v45.31h1.175Zm2.285,0h-1.175v45.31H525.1Zm2.35,0h-1.175v45.31h1.175Zm1.11,0v45.31h1.11v-45.31Z" fill="#fff"/>
  </g>
</svg>
